# xmcd
# 
# Track frame offsets:
#     182
#     15407
#     28340
#     41252
#     56577
#     68050
#     82612
#     92350
#     106095
#     120287
#     131875
#     146135
#     159945
#     171645
#     185087
#     196837
#     207895
#     222235
#     235825
#     248642
#     263165
#     274647
#     288820
#     300317
#     313685
#     323682
# 
# Disc length: 4473
# 
# Revision: 3
# Processed by: cddbd v1.5.2PL0 Copyright (c) Steve Scherf et al.
# Submitted via: BonkEnc v1.0.8
# 
DISCID=5c11771a
DTITLE=Tião Carreiro e Pardinho - Tião Carreiro e Pardinho Dose Dupla Vol. 6
DYEAR=1995
DGENRE=Country
TTITLE0=Estrela de Ouro
TTITLE1=Rainha do Vale
TTITLE2=Vim Dizer Adeus
TTITLE3=Canção da Madrugada
TTITLE4=O Carpideiro
TTITLE5=Saudade de Ituiutaba
TTITLE6=Rio Paranapanema
TTITLE7=A Coisa Ficou Bonita
TTITLE8=Oi Paixão
TTITLE9=Vacilou Virou Petisco
TTITLE10=O Mundo Velho Não Tem Jeito
TTITLE11=O Mundo no Avesso
TTITLE12=Com Deus na Frente
TTITLE13=A Grande Montanha
TTITLE14=Nossos Devaneios
TTITLE15=Última Chance
TTITLE16=Chamada a Cobrar
TTITLE17=Leito de Hospital
TTITLE18=Canção do Século
TTITLE19=Aquarela Sertaneja
TTITLE20=A Majestade "O Pagode"
TTITLE21=Saudade Me Fez Voltar
TTITLE22=Osso Duro de Roer
TTITLE23=Versos Aos Pés do Homem
TTITLE24=Onça de Paletó
TTITLE25=Justiça Divina
EXTD=YEAR: 1995
EXTT0=
EXTT1=
EXTT2=
EXTT3=
EXTT4=
EXTT5=
EXTT6=
EXTT7=
EXTT8=
EXTT9=
EXTT10=
EXTT11=
EXTT12=
EXTT13=
EXTT14=
EXTT15=
EXTT16=
EXTT17=
EXTT18=
EXTT19=
EXTT20=
EXTT21=
EXTT22=
EXTT23=
EXTT24=
EXTT25=
PLAYORDER=
